<svg version="1.1" id="Layer_1" xmlns="http://www.w3.org/2000/svg" xmlns:xlink="http://www.w3.org/1999/xlink" x="0px" y="0px"
	 width="100%" viewBox="0 0 800 800" enable-background="new 0 0 800 800" xml:space="preserve">
<path fill="#FFFFFF" opacity="1.000000" stroke="none" 
	d="
M543.000000,801.000000 
	C362.000000,801.000000 181.500000,801.000000 1.000000,801.000000 
	C1.000000,534.333313 1.000000,267.666656 1.000000,1.000000 
	C267.666656,1.000000 534.333313,1.000000 801.000000,1.000000 
	C801.000000,267.666656 801.000000,534.333313 801.000000,801.000000 
	C715.166687,801.000000 629.333313,801.000000 543.000000,801.000000 
M218.151169,172.208939 
	C190.372925,163.161514 162.122131,162.884171 133.956284,169.223907 
	C109.793503,174.662613 91.847244,188.421219 85.448250,213.411179 
	C82.713097,224.092758 81.286415,235.383057 81.177063,246.415710 
	C80.718063,292.724945 80.982361,339.041382 80.981804,385.355164 
	C80.981789,386.798767 80.981804,388.242371 80.981804,389.772766 
	C99.860535,389.772766 118.262093,389.772766 137.054840,389.772766 
	C137.054840,365.148804 137.054840,340.748688 137.054840,316.264282 
	C159.837204,316.264282 182.226440,316.264282 205.028336,316.264282 
	C205.028336,340.918579 205.028336,365.312042 205.028336,389.786560 
	C224.187347,389.786560 242.931839,389.786560 262.047150,389.786560 
	C262.047150,387.788757 262.047150,385.998383 262.047150,384.208008 
	C262.047150,339.726776 262.150299,295.245087 261.959137,250.764679 
	C261.921417,241.982346 261.340271,233.113113 259.990723,224.442566 
	C256.109039,199.503479 242.935730,181.627899 218.151169,172.208939 
M739.876404,388.845612 
	C736.291199,372.139587 732.947205,355.377167 729.060242,338.741669 
	C724.103333,317.526733 712.234253,302.162506 690.711304,295.515167 
	C688.446716,294.815735 686.145996,294.233368 683.310791,293.442993 
	C700.970947,271.810577 718.213135,250.690155 735.455322,229.569717 
	C735.213623,229.081482 734.971863,228.593231 734.730164,228.104996 
	C717.573364,228.104996 700.415710,228.030380 683.261230,228.230362 
	C681.694031,228.248642 679.690186,229.681366 678.664185,231.041794 
	C671.048340,241.139343 663.629028,251.385132 656.147278,261.583801 
	C648.897705,271.465851 641.647217,281.347229 633.482056,292.476044 
	C633.482056,243.428574 633.482056,195.917114 633.482056,148.253326 
	C614.725891,148.253326 596.494385,148.253326 578.214600,148.253326 
	C578.214600,228.897003 578.214600,309.286743 578.214600,390.000366 
	C587.577759,390.000366 596.707153,390.000366 605.836487,390.000366 
	C614.953918,390.000366 624.071289,390.000366 633.344421,390.000366 
	C633.344421,378.960052 634.127747,368.397308 633.135315,358.004120 
	C632.030884,346.438385 635.173950,337.452393 643.990173,329.885498 
	C646.610901,327.636139 648.819824,326.818878 651.918640,327.266388 
	C664.300598,329.054779 671.566895,336.247559 673.875427,348.977783 
	C676.328613,362.504669 678.808716,376.026642 681.308533,389.723938 
	C700.885071,389.723938 720.330078,389.723938 739.876404,388.845612 
M454.786652,324.001068 
	C484.203400,324.001068 513.620117,324.001068 544.044434,324.001068 
	C543.044983,306.668335 543.041809,289.955078 540.910278,273.517853 
	C537.638550,248.287613 522.411865,232.551926 497.711884,226.692245 
	C482.580566,223.102585 467.353333,223.939331 452.074585,225.842682 
	C425.339294,229.173279 407.114960,243.103027 398.973816,268.949768 
	C391.773468,291.809723 391.598907,315.254883 396.613068,338.491089 
	C402.750336,366.932190 420.327820,384.504730 449.125641,390.528168 
	C470.100220,394.915253 491.142120,394.558136 512.178162,391.558533 
	C521.611023,390.213470 530.908569,387.919403 540.522522,386.005188 
	C538.790527,373.037201 537.194336,361.085999 535.599915,349.147736 
	C534.672241,349.147736 534.161560,349.041321 533.712830,349.163147 
	C516.398926,353.863068 498.781067,355.696594 480.867004,354.901855 
	C462.338959,354.079865 453.820648,346.461914 451.412415,328.306122 
	C451.170715,326.484009 449.889984,323.630127 454.786652,324.001068 
M388.782349,506.079407 
	C385.924408,488.668549 376.015900,478.112549 358.573792,474.623444 
	C340.792755,471.066528 323.887543,473.878845 307.367218,480.798676 
	C305.447144,481.602966 302.716858,481.188171 300.566040,480.596985 
	C293.084198,478.540436 285.832977,475.229401 278.238861,474.076599 
	C257.393707,470.912140 237.233688,475.455383 217.233383,480.943970 
	C213.357742,482.007568 212.071213,483.665497 212.095734,487.797546 
	C212.291428,520.778809 212.201797,553.761719 212.214340,586.744141 
	C212.214966,588.359253 212.352722,589.974365 212.433380,591.737244 
	C225.729156,591.737244 238.633453,591.737244 252.191559,591.737244 
	C252.191559,561.788635 252.191559,532.098694 252.191559,502.347321 
	C255.785904,501.859436 258.737427,501.234711 261.712006,501.092865 
	C276.599030,500.382843 280.991455,504.594086 280.998016,519.407837 
	C281.007874,541.729248 281.001190,564.050659 281.001495,586.372070 
	C281.001526,588.137451 281.001495,589.902771 281.001495,591.684082 
	C294.551361,591.684082 307.450867,591.684082 320.058258,591.684082 
	C320.058258,562.331177 320.058258,533.299866 320.058258,503.803894 
	C321.791626,503.283630 323.966095,502.434143 326.220398,501.985413 
	C344.573822,498.332123 350.295013,505.055084 350.020691,520.547607 
	C349.631439,542.528992 349.922363,564.522339 349.922607,586.510620 
	C349.922638,588.258362 349.922607,590.006042 349.922607,591.674683 
	C363.446411,591.674683 376.198700,591.674683 388.909241,591.674683 
	C388.909241,563.223511 388.909241,535.099304 388.782349,506.079407 
M359.342743,271.500214 
	C359.342743,230.435806 359.342743,189.371384 359.342743,148.311066 
	C340.583221,148.311066 322.363770,148.311066 304.240540,148.311066 
	C304.240540,228.989410 304.240540,309.357025 304.240540,389.708984 
	C322.743347,389.708984 340.982330,389.708984 359.342773,389.708984 
	C359.342773,350.445862 359.342773,311.473053 359.342743,271.500214 
M110.919983,566.753052 
	C100.392761,564.860046 89.865547,562.966980 79.112099,561.033264 
	C78.480522,565.824158 77.976303,570.272949 77.295822,574.694702 
	C75.191261,588.370361 75.165291,588.365784 88.908409,591.160583 
	C89.397247,591.260071 89.876587,591.407043 90.366150,591.502014 
	C112.161301,595.730042 133.973022,596.943115 155.652969,591.023254 
	C171.590729,586.671265 183.011475,577.538208 185.982269,560.281921 
	C189.396484,540.450134 182.394119,524.314270 167.029633,512.242493 
	C157.676544,504.893860 146.930710,499.325439 136.860367,492.879395 
	C130.431595,488.764343 123.564606,485.116730 117.850830,480.157288 
	C110.857590,474.087311 113.444862,463.947693 122.306381,461.212799 
	C126.538048,459.906799 131.148682,458.993744 135.534714,459.176147 
	C149.910950,459.773956 164.262909,460.955841 178.954681,461.935242 
	C179.808945,453.465149 180.718994,444.441772 181.698517,434.729706 
	C171.387589,433.594849 161.525742,432.118713 151.610458,431.502838 
	C133.263199,430.363129 114.948822,430.747650 97.374298,437.056366 
	C84.980484,441.505371 76.633865,449.870758 73.682617,463.149963 
	C69.743027,480.876312 74.233116,496.191284 88.114090,507.634949 
	C98.322769,516.051086 109.899300,522.804504 120.837265,530.340942 
	C127.266983,534.771118 133.851028,539.016479 139.966766,543.849731 
	C144.282669,547.260559 146.038925,552.210327 144.536087,557.752869 
	C143.075363,563.140076 138.798615,565.555664 133.740631,565.991394 
	C126.473686,566.617615 119.148582,566.568604 110.919983,566.753052 
M470.520294,594.993774 
	C474.997406,594.677612 479.486389,594.478699 483.949585,594.025452 
	C506.065186,591.779480 521.977905,579.081177 527.395752,558.673767 
	C531.740173,542.309326 531.642029,525.715027 527.478455,509.305908 
	C522.971069,491.541626 511.204590,480.746948 493.766388,475.995422 
	C480.052521,472.258728 466.164398,472.063690 452.265961,474.931641 
	C431.555817,479.205170 418.039246,491.116211 413.390137,512.160217 
	C410.632599,524.642029 410.388702,537.242554 412.243500,549.869873 
	C415.321808,570.826782 425.957001,585.808167 446.945892,591.650085 
	C454.228210,593.677002 462.008423,593.914978 470.520294,594.993774 
M724.744385,526.501648 
	C724.737122,521.669006 724.850891,516.832581 724.700806,512.004395 
	C724.168823,494.895050 716.515503,483.656891 700.350464,477.984131 
	C693.381958,475.538727 685.840820,474.314240 678.454895,473.552216 
	C661.422058,471.794769 644.735657,474.525909 627.871704,478.334442 
	C628.493225,487.302002 629.082397,495.802612 629.692261,504.601196 
	C636.187805,503.444275 641.710815,501.913788 647.304382,501.585419 
	C657.045227,501.013580 666.842651,500.830200 676.590210,501.190735 
	C681.457581,501.370758 684.209473,505.190979 684.719849,509.960632 
	C685.100037,513.513428 684.794800,517.139526 684.794800,521.111694 
	C672.257507,518.496643 660.209473,518.379517 648.147339,520.984680 
	C630.187561,524.863647 619.539307,536.924927 619.086243,554.096069 
	C618.554626,574.239258 627.981995,587.656860 646.634033,592.088989 
	C672.200195,598.164062 697.229004,594.057556 721.913147,586.805420 
	C723.215637,586.422729 724.605408,583.661316 724.623169,581.993103 
	C724.816650,563.830688 724.744141,545.665466 724.744385,526.501648 
M554.872498,492.500000 
	C554.872498,525.561035 554.872498,558.622070 554.872498,591.672485 
	C568.488770,591.672485 581.382202,591.672485 594.342651,591.672485 
	C594.342651,533.655029 594.342651,475.969635 594.342651,418.319153 
	C581.058350,418.319153 568.144226,418.319153 554.872375,418.319153 
	C554.872375,442.926971 554.872375,467.213501 554.872498,492.500000 
z"/>
<path fill="#000000" opacity="1.000000" stroke="none" 
	d="
M218.490967,172.397980 
	C242.935730,181.627899 256.109039,199.503479 259.990723,224.442566 
	C261.340271,233.113113 261.921417,241.982346 261.959137,250.764679 
	C262.150299,295.245087 262.047150,339.726776 262.047150,384.208008 
	C262.047150,385.998383 262.047150,387.788757 262.047150,389.786560 
	C242.931839,389.786560 224.187347,389.786560 205.028336,389.786560 
	C205.028336,365.312042 205.028336,340.918579 205.028336,316.264282 
	C182.226440,316.264282 159.837204,316.264282 137.054840,316.264282 
	C137.054840,340.748688 137.054840,365.148804 137.054840,389.772766 
	C118.262093,389.772766 99.860535,389.772766 80.981804,389.772766 
	C80.981804,388.242371 80.981789,386.798767 80.981804,385.355164 
	C80.982361,339.041382 80.718063,292.724945 81.177063,246.415710 
	C81.286415,235.383057 82.713097,224.092758 85.448250,213.411179 
	C91.847244,188.421219 109.793503,174.662613 133.956284,169.223907 
	C162.122131,162.884171 190.372925,163.161514 218.490967,172.397980 
M141.623489,277.001678 
	C162.695038,277.001678 183.766586,277.001678 204.930893,277.001678 
	C204.930893,265.094696 204.933212,253.936676 204.928406,242.778656 
	C204.927689,241.112595 204.933472,239.444992 204.868759,237.780731 
	C204.159515,219.538300 195.730850,208.550476 179.659912,205.515228 
	C175.622269,204.752655 171.360657,204.990433 167.206940,205.060760 
	C151.389389,205.328598 140.013519,214.129990 138.321030,229.783981 
	C136.718063,244.609833 137.401596,259.679016 136.964249,274.637817 
	C136.869781,277.868927 139.045731,276.817200 141.623489,277.001678 
z"/>
<path fill="#010101" opacity="1.000000" stroke="none" 
	d="
M739.825684,389.284790 
	C720.330078,389.723938 700.885071,389.723938 681.308533,389.723938 
	C678.808716,376.026642 676.328613,362.504669 673.875427,348.977783 
	C671.566895,336.247559 664.300598,329.054779 651.918640,327.266388 
	C648.819824,326.818878 646.610901,327.636139 643.990173,329.885498 
	C635.173950,337.452393 632.030884,346.438385 633.135315,358.004120 
	C634.127747,368.397308 633.344421,378.960052 633.344421,390.000366 
	C624.071289,390.000366 614.953918,390.000366 605.836487,390.000366 
	C596.707153,390.000366 587.577759,390.000366 578.214600,390.000366 
	C578.214600,309.286743 578.214600,228.897003 578.214600,148.253326 
	C596.494385,148.253326 614.725891,148.253326 633.482056,148.253326 
	C633.482056,195.917114 633.482056,243.428574 633.482056,292.476044 
	C641.647217,281.347229 648.897705,271.465851 656.147278,261.583801 
	C663.629028,251.385132 671.048340,241.139343 678.664185,231.041794 
	C679.690186,229.681366 681.694031,228.248642 683.261230,228.230362 
	C700.415710,228.030380 717.573364,228.104996 734.730164,228.104996 
	C734.971863,228.593231 735.213623,229.081482 735.455322,229.569717 
	C718.213135,250.690155 700.970947,271.810577 683.310791,293.442993 
	C686.145996,294.233368 688.446716,294.815735 690.711304,295.515167 
	C712.234253,302.162506 724.103333,317.526733 729.060242,338.741669 
	C732.947205,355.377167 736.291199,372.139587 739.825684,389.284790 
z"/>
<path fill="#010101" opacity="1.000000" stroke="none" 
	d="
M454.320435,324.001282 
	C449.889984,323.630127 451.170715,326.484009 451.412415,328.306122 
	C453.820648,346.461914 462.338959,354.079865 480.867004,354.901855 
	C498.781067,355.696594 516.398926,353.863068 533.712830,349.163147 
	C534.161560,349.041321 534.672241,349.147736 535.599915,349.147736 
	C537.194336,361.085999 538.790527,373.037201 540.522522,386.005188 
	C530.908569,387.919403 521.611023,390.213470 512.178162,391.558533 
	C491.142120,394.558136 470.100220,394.915253 449.125641,390.528168 
	C420.327820,384.504730 402.750336,366.932190 396.613068,338.491089 
	C391.598907,315.254883 391.773468,291.809723 398.973816,268.949768 
	C407.114960,243.103027 425.339294,229.173279 452.074585,225.842682 
	C467.353333,223.939331 482.580566,223.102585 497.711884,226.692245 
	C522.411865,232.551926 537.638550,248.287613 540.910278,273.517853 
	C543.041809,289.955078 543.044983,306.668335 544.044434,324.001068 
	C513.620117,324.001068 484.203400,324.001068 454.320435,324.001282 
M479.246460,258.935394 
	C469.305786,256.147034 460.512421,258.438904 456.612335,265.469727 
	C451.553589,274.589142 451.254791,284.667633 451.125641,295.004028 
	C458.441772,295.004028 465.095062,295.003998 471.748352,295.003998 
	C478.366699,295.003998 484.985046,295.004028 492.938507,295.004028 
	C491.623077,286.103424 490.620636,277.773193 489.090332,269.541107 
	C488.157593,264.523590 485.004578,260.890167 479.246460,258.935394 
z"/>
<path fill="#7A7A7A" opacity="1.000000" stroke="none" 
	d="
M388.845795,506.527283 
	C388.909241,535.099304 388.909241,563.223511 388.909241,591.674683 
	C376.198700,591.674683 363.446411,591.674683 349.922607,591.674683 
	C349.922607,590.006042 349.922638,588.258362 349.922607,586.510620 
	C349.922363,564.522339 349.631439,542.528992 350.020691,520.547607 
	C350.295013,505.055084 344.573822,498.332123 326.220398,501.985413 
	C323.966095,502.434143 321.791626,503.283630 320.058258,503.803894 
	C320.058258,533.299866 320.058258,562.331177 320.058258,591.684082 
	C307.450867,591.684082 294.551361,591.684082 281.001495,591.684082 
	C281.001495,589.902771 281.001526,588.137451 281.001495,586.372070 
	C281.001190,564.050659 281.007874,541.729248 280.998016,519.407837 
	C280.991455,504.594086 276.599030,500.382843 261.712006,501.092865 
	C258.737427,501.234711 255.785904,501.859436 252.191559,502.347321 
	C252.191559,532.098694 252.191559,561.788635 252.191559,591.737244 
	C238.633453,591.737244 225.729156,591.737244 212.433380,591.737244 
	C212.352722,589.974365 212.214966,588.359253 212.214340,586.744141 
	C212.201797,553.761719 212.291428,520.778809 212.095734,487.797546 
	C212.071213,483.665497 213.357742,482.007568 217.233383,480.943970 
	C237.233688,475.455383 257.393707,470.912140 278.238861,474.076599 
	C285.832977,475.229401 293.084198,478.540436 300.566040,480.596985 
	C302.716858,481.188171 305.447144,481.602966 307.367218,480.798676 
	C323.887543,473.878845 340.792755,471.066528 358.573792,474.623444 
	C376.015900,478.112549 385.924408,488.668549 388.845795,506.527283 
z"/>
<path fill="#000000" opacity="1.000000" stroke="none" 
	d="
M359.342773,272.000244 
	C359.342773,311.473053 359.342773,350.445862 359.342773,389.708984 
	C340.982330,389.708984 322.743347,389.708984 304.240540,389.708984 
	C304.240540,309.357025 304.240540,228.989410 304.240540,148.311066 
	C322.363770,148.311066 340.583221,148.311066 359.342743,148.311066 
	C359.342743,189.371384 359.342743,230.435806 359.342773,272.000244 
z"/>
<path fill="#7A7A7A" opacity="1.000000" stroke="none" 
	d="
M111.384140,566.780396 
	C119.148582,566.568604 126.473686,566.617615 133.740631,565.991394 
	C138.798615,565.555664 143.075363,563.140076 144.536087,557.752869 
	C146.038925,552.210327 144.282669,547.260559 139.966766,543.849731 
	C133.851028,539.016479 127.266983,534.771118 120.837265,530.340942 
	C109.899300,522.804504 98.322769,516.051086 88.114090,507.634949 
	C74.233116,496.191284 69.743027,480.876312 73.682617,463.149963 
	C76.633865,449.870758 84.980484,441.505371 97.374298,437.056366 
	C114.948822,430.747650 133.263199,430.363129 151.610458,431.502838 
	C161.525742,432.118713 171.387589,433.594849 181.698517,434.729706 
	C180.718994,444.441772 179.808945,453.465149 178.954681,461.935242 
	C164.262909,460.955841 149.910950,459.773956 135.534714,459.176147 
	C131.148682,458.993744 126.538048,459.906799 122.306381,461.212799 
	C113.444862,463.947693 110.857590,474.087311 117.850830,480.157288 
	C123.564606,485.116730 130.431595,488.764343 136.860367,492.879395 
	C146.930710,499.325439 157.676544,504.893860 167.029633,512.242493 
	C182.394119,524.314270 189.396484,540.450134 185.982269,560.281921 
	C183.011475,577.538208 171.590729,586.671265 155.652969,591.023254 
	C133.973022,596.943115 112.161301,595.730042 90.366150,591.502014 
	C89.876587,591.407043 89.397247,591.260071 88.908409,591.160583 
	C75.165291,588.365784 75.191261,588.370361 77.295822,574.694702 
	C77.976303,570.272949 78.480522,565.824158 79.112099,561.033264 
	C89.865547,562.966980 100.392761,564.860046 111.384140,566.780396 
z"/>
<path fill="#7A7A7A" opacity="1.000000" stroke="none" 
	d="
M470.040771,594.981934 
	C462.008423,593.914978 454.228210,593.677002 446.945892,591.650085 
	C425.957001,585.808167 415.321808,570.826782 412.243500,549.869873 
	C410.388702,537.242554 410.632599,524.642029 413.390137,512.160217 
	C418.039246,491.116211 431.555817,479.205170 452.265961,474.931641 
	C466.164398,472.063690 480.052521,472.258728 493.766388,475.995422 
	C511.204590,480.746948 522.971069,491.541626 527.478455,509.305908 
	C531.642029,525.715027 531.740173,542.309326 527.395752,558.673767 
	C521.977905,579.081177 506.065186,591.779480 483.949585,594.025452 
	C479.486389,594.478699 474.997406,594.677612 470.040771,594.981934 
M487.951355,515.816956 
	C484.954071,504.590302 480.370178,500.813995 469.978058,501.010193 
	C460.607910,501.187103 455.787445,505.488800 453.647980,516.491028 
	C451.275574,528.691040 451.322052,540.981140 454.022461,553.147644 
	C456.208832,562.998169 461.470947,567.086853 471.206482,566.996826 
	C480.333282,566.912537 486.641357,562.508545 487.559448,552.876221 
	C488.701263,540.896301 487.969604,528.737915 487.951355,515.816956 
z"/>
<path fill="#7A7A7A" opacity="1.000000" stroke="none" 
	d="
M724.744263,527.001343 
	C724.744141,545.665466 724.816650,563.830688 724.623169,581.993103 
	C724.605408,583.661316 723.215637,586.422729 721.913147,586.805420 
	C697.229004,594.057556 672.200195,598.164062 646.634033,592.088989 
	C627.981995,587.656860 618.554626,574.239258 619.086243,554.096069 
	C619.539307,536.924927 630.187561,524.863647 648.147339,520.984680 
	C660.209473,518.379517 672.257507,518.496643 684.794800,521.111694 
	C684.794800,517.139526 685.100037,513.513428 684.719849,509.960632 
	C684.209473,505.190979 681.457581,501.370758 676.590210,501.190735 
	C666.842651,500.830200 657.045227,501.013580 647.304382,501.585419 
	C641.710815,501.913788 636.187805,503.444275 629.692261,504.601196 
	C629.082397,495.802612 628.493225,487.302002 627.871704,478.334442 
	C644.735657,474.525909 661.422058,471.794769 678.454895,473.552216 
	C685.840820,474.314240 693.381958,475.538727 700.350464,477.984131 
	C716.515503,483.656891 724.168823,494.895050 724.700806,512.004395 
	C724.850891,516.832581 724.737122,521.669006 724.744263,527.001343 
M661.640686,544.994080 
	C655.651001,549.708191 655.537292,556.004944 656.991211,562.648438 
	C658.310486,568.676636 663.119080,570.939758 668.355042,571.588440 
	C673.690857,572.249573 679.172363,571.734680 684.790161,571.734680 
	C684.790161,561.546387 684.790161,552.443176 684.790161,543.060425 
	C677.035400,541.683655 669.532654,540.817688 661.640686,544.994080 
z"/>
<path fill="#7A7A7A" opacity="1.000000" stroke="none" 
	d="
M554.872437,492.000000 
	C554.872375,467.213501 554.872375,442.926971 554.872375,418.319153 
	C568.144226,418.319153 581.058350,418.319153 594.342651,418.319153 
	C594.342651,475.969635 594.342651,533.655029 594.342651,591.672485 
	C581.382202,591.672485 568.488770,591.672485 554.872498,591.672485 
	C554.872498,558.622070 554.872498,525.561035 554.872437,492.000000 
z"/>
<path fill="#FEFEFE" opacity="1.000000" stroke="none" 
	d="
M141.138123,277.001587 
	C139.045731,276.817200 136.869781,277.868927 136.964249,274.637817 
	C137.401596,259.679016 136.718063,244.609833 138.321030,229.783981 
	C140.013519,214.129990 151.389389,205.328598 167.206940,205.060760 
	C171.360657,204.990433 175.622269,204.752655 179.659912,205.515228 
	C195.730850,208.550476 204.159515,219.538300 204.868759,237.780731 
	C204.933472,239.444992 204.927689,241.112595 204.928406,242.778656 
	C204.933212,253.936676 204.930893,265.094696 204.930893,277.001678 
	C183.766586,277.001678 162.695038,277.001678 141.138123,277.001587 
z"/>
<path fill="#FCFCFC" opacity="1.000000" stroke="none" 
	d="
M479.641724,259.017090 
	C485.004578,260.890167 488.157593,264.523590 489.090332,269.541107 
	C490.620636,277.773193 491.623077,286.103424 492.938507,295.004028 
	C484.985046,295.004028 478.366699,295.003998 471.748352,295.003998 
	C465.095062,295.003998 458.441772,295.004028 451.125641,295.004028 
	C451.254791,284.667633 451.553589,274.589142 456.612335,265.469727 
	C460.512421,258.438904 469.305786,256.147034 479.641724,259.017090 
z"/>
<path fill="#FEFEFE" opacity="1.000000" stroke="none" 
	d="
M487.999207,516.236755 
	C487.969604,528.737915 488.701263,540.896301 487.559448,552.876221 
	C486.641357,562.508545 480.333282,566.912537 471.206482,566.996826 
	C461.470947,567.086853 456.208832,562.998169 454.022461,553.147644 
	C451.322052,540.981140 451.275574,528.691040 453.647980,516.491028 
	C455.787445,505.488800 460.607910,501.187103 469.978058,501.010193 
	C480.370178,500.813995 484.954071,504.590302 487.999207,516.236755 
z"/>
<path fill="#FDFDFD" opacity="1.000000" stroke="none" 
	d="
M661.964966,544.790771 
	C669.532654,540.817688 677.035400,541.683655 684.790161,543.060425 
	C684.790161,552.443176 684.790161,561.546387 684.790161,571.734680 
	C679.172363,571.734680 673.690857,572.249573 668.355042,571.588440 
	C663.119080,570.939758 658.310486,568.676636 656.991211,562.648438 
	C655.537292,556.004944 655.651001,549.708191 661.964966,544.790771 
z"/>
</svg>